<svg width="256" height="268" viewBox="0 0 256 268" fill="none" xmlns="http://www.w3.org/2000/svg">
<circle cx="128.5" cy="139.5" r="111.5" fill="url(#paint0_linear_4406_27233)"/>
<g opacity="0.2">
<path fill-rule="evenodd" clip-rule="evenodd" d="M58 87.5C59.1966 87.5 60.1667 88.47 60.1667 89.6667C60.1667 90.8633 59.1966 91.8333 58 91.8333H53.6667C52.4701 91.8333 51.5 90.8633 51.5 89.6667C51.5 88.47 52.4701 87.5 53.6667 87.5H58ZM60.1667 98.3333C60.1667 97.1367 59.1966 96.1667 58 96.1667H53.6667C52.4701 96.1667 51.5 97.1367 51.5 98.3333C51.5 99.53 52.4701 100.5 53.6667 100.5H58C59.1966 100.5 60.1667 99.53 60.1667 98.3333ZM58 104.833C59.1966 104.833 60.1667 105.803 60.1667 107C60.1667 108.197 59.1966 109.167 58 109.167H53.6667C52.4701 109.167 51.5 108.197 51.5 107C51.5 105.803 52.4701 104.833 53.6667 104.833H58ZM60.1667 115.667C60.1667 114.47 59.1966 113.5 58 113.5H53.6667C52.4701 113.5 51.5 114.47 51.5 115.667C51.5 116.863 52.4701 117.833 53.6667 117.833H58C59.1966 117.833 60.1667 116.863 60.1667 115.667ZM60.1667 124.333C60.1667 123.137 59.1966 122.167 58 122.167H53.6667C52.4701 122.167 51.5 123.137 51.5 124.333C51.5 125.53 52.4701 126.5 53.6667 126.5H58C59.1966 126.5 60.1667 125.53 60.1667 124.333Z" fill="white"/>
<path fill-rule="evenodd" clip-rule="evenodd" d="M73.1666 96.1667C74.3633 96.1667 75.3333 97.1368 75.3333 98.3334C75.3333 99.53 74.3633 100.5 73.1666 100.5H68.8333C67.6367 100.5 66.6666 99.53 66.6666 98.3334C66.6666 97.1368 67.6367 96.1667 68.8333 96.1667H73.1666ZM75.3333 107C75.3333 105.803 74.3633 104.833 73.1666 104.833H68.8333C67.6367 104.833 66.6666 105.803 66.6666 107C66.6666 108.197 67.6367 109.167 68.8333 109.167H73.1666C74.3633 109.167 75.3333 108.197 75.3333 107ZM73.1666 113.5C74.3633 113.5 75.3333 114.47 75.3333 115.667C75.3333 116.863 74.3633 117.833 73.1666 117.833H68.8333C67.6367 117.833 66.6666 116.863 66.6666 115.667C66.6666 114.47 67.6367 113.5 68.8333 113.5H73.1666ZM73.1666 122.167C74.3633 122.167 75.3333 123.137 75.3333 124.333C75.3333 125.53 74.3633 126.5 73.1666 126.5H68.8333C67.6367 126.5 66.6666 125.53 66.6666 124.333C66.6666 123.137 67.6367 122.167 68.8333 122.167H73.1666Z" fill="white"/>
<path fill-rule="evenodd" clip-rule="evenodd" d="M88.3333 104.833C89.53 104.833 90.5 105.803 90.5 107C90.5 108.197 89.53 109.167 88.3333 109.167H84C82.8034 109.167 81.8333 108.197 81.8333 107C81.8333 105.803 82.8034 104.833 84 104.833H88.3333ZM90.5 115.667C90.5 114.47 89.53 113.5 88.3333 113.5H84C82.8034 113.5 81.8333 114.47 81.8333 115.667C81.8333 116.863 82.8034 117.833 84 117.833H88.3333C89.53 117.833 90.5 116.863 90.5 115.667ZM90.5 124.333C90.5 123.137 89.53 122.167 88.3333 122.167H84C82.8034 122.167 81.8333 123.137 81.8333 124.333C81.8333 125.53 82.8034 126.5 84 126.5H88.3333C89.53 126.5 90.5 125.53 90.5 124.333Z" fill="white"/>
</g>
<g filter="url(#filter0_d_4406_27233)">
<path fill-rule="evenodd" clip-rule="evenodd" d="M170.687 104.993C171.747 101.812 170.028 98.3735 166.847 97.3132C163.666 96.2529 160.228 97.972 159.168 101.153L147.167 137.155C145.74 141.437 140.306 142.72 137.114 139.528L128.472 130.886C118.898 121.312 102.596 125.16 98.3139 138.005L86.3132 174.007C85.2529 177.188 86.972 180.626 90.153 181.687C93.3339 182.747 96.7722 181.028 97.8325 177.847L109.833 141.845C111.26 137.563 116.694 136.28 119.886 139.472L128.528 148.114C138.102 157.688 154.404 153.84 158.686 140.995L170.687 104.993Z" fill="white"/>
</g>
<g opacity="0.88" filter="url(#filter1_d_4406_27233)">
<circle cx="227.429" cy="190" r="2" transform="rotate(-180 227.429 190)" fill="white"/>
<circle cx="210.071" cy="190" r="2" transform="rotate(-180 210.071 190)" fill="white"/>
<circle cx="192.714" cy="190" r="2" transform="rotate(-180 192.714 190)" fill="white"/>
<circle cx="175.357" cy="224.714" r="2" transform="rotate(-180 175.357 224.714)" fill="white"/>
<circle cx="175.357" cy="207.357" r="2" transform="rotate(-180 175.357 207.357)" fill="white"/>
<circle cx="175.357" cy="190" r="2" transform="rotate(-180 175.357 190)" fill="white"/>
<circle cx="158" cy="224.714" r="2" transform="rotate(-180 158 224.714)" fill="white"/>
<circle cx="158" cy="207.357" r="2" transform="rotate(-180 158 207.357)" fill="white"/>
<circle cx="158" cy="190" r="2" transform="rotate(-180 158 190)" fill="white"/>
</g>
<g filter="url(#filter2_d_4406_27233)">
<path d="M184.411 211.527C184.411 206.555 184.411 204.069 185.379 202.17C186.23 200.499 187.588 199.141 189.258 198.29C191.158 197.322 193.644 197.322 198.616 197.322H223.473C228.445 197.322 230.931 197.322 232.83 198.29C234.501 199.141 235.859 200.499 236.71 202.17C237.678 204.069 237.678 206.555 237.678 211.527V236.384C237.678 241.357 237.678 243.843 236.71 245.742C235.859 247.412 234.501 248.77 232.83 249.621C230.931 250.589 228.445 250.589 223.473 250.589H198.616C193.644 250.589 191.158 250.589 189.258 249.621C187.588 248.77 186.23 247.412 185.379 245.742C184.411 243.843 184.411 241.357 184.411 236.384V211.527Z" fill="white" fill-opacity="0.96" shape-rendering="crispEdges"/>
</g>
<g opacity="0.92" filter="url(#filter3_d_4406_27233)">
<path fill-rule="evenodd" clip-rule="evenodd" d="M222.881 220.996C221.247 220.996 219.922 219.671 219.922 218.037V215.078H216.963C215.329 215.078 214.004 213.753 214.004 212.118C214.004 210.484 215.329 209.159 216.963 209.159H219.922V206.2C219.922 204.566 221.247 203.241 222.881 203.241C224.516 203.241 225.841 204.566 225.841 206.2V209.159H228.8C230.434 209.159 231.759 210.484 231.759 212.118C231.759 213.753 230.434 215.078 228.8 215.078H225.841V218.037C225.841 219.671 224.516 220.996 222.881 220.996ZM193.289 209.159C191.655 209.159 190.33 210.484 190.33 212.118C190.33 213.753 191.655 215.078 193.289 215.078H205.126C206.76 215.078 208.085 213.753 208.085 212.118C208.085 210.484 206.76 209.159 205.126 209.159H193.289ZM214.004 229.874C214.004 228.24 215.329 226.915 216.963 226.915H228.8C230.434 226.915 231.759 228.24 231.759 229.874C231.759 231.508 230.434 232.833 228.8 232.833H216.963C215.329 232.833 214.004 231.508 214.004 229.874ZM216.963 238.752C215.329 238.752 214.004 240.077 214.004 241.711C214.004 243.345 215.329 244.67 216.963 244.67H228.8C230.434 244.67 231.759 243.345 231.759 241.711C231.759 240.077 230.434 238.752 228.8 238.752H216.963ZM192.676 229.261C193.832 228.106 195.705 228.106 196.861 229.261L199.207 231.608L201.554 229.261C202.709 228.106 204.583 228.106 205.739 229.261C206.894 230.417 206.894 232.291 205.739 233.446L203.392 235.793L205.739 238.139C206.894 239.295 206.894 241.168 205.739 242.324C204.583 243.48 202.709 243.48 201.554 242.324L199.207 239.978L196.861 242.324C195.705 243.48 193.832 243.48 192.676 242.324C191.52 241.168 191.52 239.295 192.676 238.139L195.022 235.793L192.676 233.446C191.52 232.291 191.52 230.417 192.676 229.261Z" fill="#12988D"/>
</g>
<g filter="url(#filter4_d_4406_27233)">
<rect x="31" y="29" width="79" height="36" fill="white"/>
<rect x="32" y="30" width="77" height="34" stroke="#7A61FA" stroke-width="2"/>
</g>
<path d="M49.874 42.314V53H47.7646V44.7456L45.2305 45.5513V43.8887L49.647 42.314H49.874ZM70.2406 51.3521V53H62.9457V51.5938L66.3954 47.895C66.7421 47.5093 67.0155 47.1699 67.2157 46.877C67.4159 46.5791 67.56 46.313 67.6479 46.0786C67.7406 45.8394 67.787 45.6123 67.787 45.3975C67.787 45.0752 67.7333 44.7993 67.6259 44.5698C67.5185 44.3354 67.3598 44.1548 67.1498 44.0278C66.9447 43.9009 66.6908 43.8374 66.3881 43.8374C66.0658 43.8374 65.7875 43.9155 65.5531 44.0718C65.3236 44.228 65.1479 44.4453 65.0258 44.7236C64.9086 45.002 64.85 45.3169 64.85 45.6685H62.7333C62.7333 45.0337 62.8847 44.4526 63.1874 43.9253C63.4901 43.3931 63.9174 42.9707 64.4691 42.6582C65.0209 42.3408 65.6752 42.1821 66.432 42.1821C67.1791 42.1821 67.809 42.3042 68.3217 42.5483C68.8393 42.7876 69.2299 43.1343 69.4936 43.5884C69.7621 44.0376 69.8964 44.5747 69.8964 45.1997C69.8964 45.5513 69.8402 45.8955 69.7279 46.2324C69.6156 46.5645 69.4545 46.8965 69.2445 47.2285C69.0395 47.5557 68.7904 47.8877 68.4975 48.2246C68.2045 48.5615 67.8798 48.9106 67.5233 49.272L65.6703 51.3521H70.2406ZM83.3196 46.7524H84.4476C84.8089 46.7524 85.1067 46.6914 85.3411 46.5693C85.5755 46.4424 85.7488 46.2666 85.8611 46.042C85.9783 45.8125 86.0369 45.5464 86.0369 45.2437C86.0369 44.9702 85.9832 44.7285 85.8758 44.5186C85.7732 44.3037 85.6146 44.1377 85.3997 44.0205C85.1849 43.8984 84.9139 43.8374 84.5867 43.8374C84.3279 43.8374 84.0887 43.8887 83.8689 43.9912C83.6492 44.0938 83.4734 44.2378 83.3416 44.4233C83.2098 44.6089 83.1438 44.8335 83.1438 45.0972H81.0271C81.0271 44.5112 81.1834 44.001 81.4959 43.5664C81.8133 43.1318 82.2381 42.7925 82.7703 42.5483C83.3025 42.3042 83.8885 42.1821 84.5281 42.1821C85.2508 42.1821 85.8831 42.2993 86.4251 42.5337C86.9671 42.7632 87.3895 43.1025 87.6922 43.5518C87.9949 44.001 88.1463 44.5576 88.1463 45.2217C88.1463 45.5586 88.0682 45.8857 87.9119 46.2031C87.7557 46.5156 87.5311 46.7988 87.2381 47.0527C86.95 47.3018 86.5984 47.502 86.1834 47.6533C85.7684 47.7998 85.3021 47.873 84.7845 47.873H83.3196V46.7524ZM83.3196 48.3564V47.2651H84.7845C85.3655 47.2651 85.8758 47.3311 86.3152 47.4629C86.7547 47.5947 87.1233 47.7852 87.4212 48.0342C87.719 48.2783 87.9437 48.5688 88.095 48.9058C88.2464 49.2378 88.3221 49.6064 88.3221 50.0117C88.3221 50.5098 88.2269 50.9541 88.0364 51.3447C87.846 51.7305 87.5774 52.0576 87.2308 52.3262C86.889 52.5947 86.4886 52.7998 86.0296 52.9414C85.5706 53.0781 85.0701 53.1465 84.5281 53.1465C84.0789 53.1465 83.637 53.0854 83.2024 52.9634C82.7728 52.8364 82.3821 52.6484 82.0306 52.3994C81.6839 52.1455 81.4056 51.8281 81.1956 51.4473C80.9905 51.0615 80.888 50.605 80.888 50.0776H83.0047C83.0047 50.3511 83.073 50.5952 83.2098 50.8101C83.3465 51.0249 83.5345 51.1934 83.7737 51.3154C84.0179 51.4375 84.2889 51.4985 84.5867 51.4985C84.9236 51.4985 85.2117 51.4375 85.451 51.3154C85.6951 51.1885 85.8807 51.0127 86.0076 50.7881C86.1395 50.5586 86.2054 50.2925 86.2054 49.9897C86.2054 49.5991 86.1346 49.2866 85.993 49.0522C85.8514 48.813 85.6487 48.6372 85.3851 48.5249C85.1214 48.4126 84.8089 48.3564 84.4476 48.3564H83.3196Z" fill="#BABED2"/>
<rect x="30" y="28" width="5" height="5" fill="white" stroke="#7A61FA" stroke-width="2"/>
<rect x="105.667" y="28" width="5" height="5" fill="white" stroke="#7A61FA" stroke-width="2"/>
<rect x="30" y="60" width="5" height="5" fill="white" stroke="#7A61FA" stroke-width="2"/>
<g filter="url(#filter5_d_4406_27233)">
<path d="M100.25 55.9507C100.075 55.1086 100.974 54.453 101.722 54.8773L118.447 64.3627C119.215 64.7983 119.083 65.9428 118.236 66.1919L110.238 68.5442C110.01 68.6113 109.813 68.7574 109.683 68.9563L105.901 74.7406C105.413 75.4868 104.266 75.2697 104.085 74.3969L100.25 55.9507Z" fill="#252833"/>
<path d="M100.25 55.9507C100.075 55.1086 100.974 54.453 101.722 54.8773L118.447 64.3627C119.215 64.7983 119.083 65.9428 118.236 66.1919L110.238 68.5442C110.01 68.6113 109.813 68.7574 109.683 68.9563L105.901 74.7406C105.413 75.4868 104.266 75.2697 104.085 74.3969L100.25 55.9507Z" stroke="white"/>
</g>
<defs>
<filter id="filter0_d_4406_27233" x="46" y="65" width="165" height="165" filterUnits="userSpaceOnUse" color-interpolation-filters="sRGB">
<feFlood flood-opacity="0" result="BackgroundImageFix"/>
<feColorMatrix in="SourceAlpha" type="matrix" values="0 0 0 0 0 0 0 0 0 0 0 0 0 0 0 0 0 0 127 0" result="hardAlpha"/>
<feOffset dy="8"/>
<feGaussianBlur stdDeviation="20"/>
<feComposite in2="hardAlpha" operator="out"/>
<feColorMatrix type="matrix" values="0 0 0 0 0 0 0 0 0 0 0 0 0 0 0 0 0 0 0.46 0"/>
<feBlend mode="normal" in2="BackgroundImageFix" result="effect1_dropShadow_4406_27233"/>
<feBlend mode="normal" in="SourceGraphic" in2="effect1_dropShadow_4406_27233" result="shape"/>
</filter>
<filter id="filter1_d_4406_27233" x="151" y="183" width="81.4286" height="46.7144" filterUnits="userSpaceOnUse" color-interpolation-filters="sRGB">
<feFlood flood-opacity="0" result="BackgroundImageFix"/>
<feColorMatrix in="SourceAlpha" type="matrix" values="0 0 0 0 0 0 0 0 0 0 0 0 0 0 0 0 0 0 127 0" result="hardAlpha"/>
<feOffset dx="-1" dy="-1"/>
<feGaussianBlur stdDeviation="2"/>
<feComposite in2="hardAlpha" operator="out"/>
<feColorMatrix type="matrix" values="0 0 0 0 0 0 0 0 0 0 0 0 0 0 0 0 0 0 0.18 0"/>
<feBlend mode="normal" in2="BackgroundImageFix" result="effect1_dropShadow_4406_27233"/>
<feBlend mode="normal" in="SourceGraphic" in2="effect1_dropShadow_4406_27233" result="shape"/>
</filter>
<filter id="filter2_d_4406_27233" x="168.411" y="181.322" width="77.2667" height="77.2666" filterUnits="userSpaceOnUse" color-interpolation-filters="sRGB">
<feFlood flood-opacity="0" result="BackgroundImageFix"/>
<feColorMatrix in="SourceAlpha" type="matrix" values="0 0 0 0 0 0 0 0 0 0 0 0 0 0 0 0 0 0 127 0" result="hardAlpha"/>
<feOffset dx="-4" dy="-4"/>
<feGaussianBlur stdDeviation="6"/>
<feComposite in2="hardAlpha" operator="out"/>
<feColorMatrix type="matrix" values="0 0 0 0 0 0 0 0 0 0 0 0 0 0 0 0 0 0 0.16 0"/>
<feBlend mode="normal" in2="BackgroundImageFix" result="effect1_dropShadow_4406_27233"/>
<feBlend mode="normal" in="SourceGraphic" in2="effect1_dropShadow_4406_27233" result="shape"/>
</filter>
<filter id="filter3_d_4406_27233" x="182.33" y="199.241" width="53.4296" height="53.4297" filterUnits="userSpaceOnUse" color-interpolation-filters="sRGB">
<feFlood flood-opacity="0" result="BackgroundImageFix"/>
<feColorMatrix in="SourceAlpha" type="matrix" values="0 0 0 0 0 0 0 0 0 0 0 0 0 0 0 0 0 0 127 0" result="hardAlpha"/>
<feOffset dx="-2" dy="2"/>
<feGaussianBlur stdDeviation="3"/>
<feComposite in2="hardAlpha" operator="out"/>
<feColorMatrix type="matrix" values="0 0 0 0 0 0 0 0 0 0 0 0 0 0 0 0 0 0 0.2 0"/>
<feBlend mode="normal" in2="BackgroundImageFix" result="effect1_dropShadow_4406_27233"/>
<feBlend mode="normal" in="SourceGraphic" in2="effect1_dropShadow_4406_27233" result="shape"/>
</filter>
<filter id="filter4_d_4406_27233" x="2" y="0" width="145" height="102" filterUnits="userSpaceOnUse" color-interpolation-filters="sRGB">
<feFlood flood-opacity="0" result="BackgroundImageFix"/>
<feColorMatrix in="SourceAlpha" type="matrix" values="0 0 0 0 0 0 0 0 0 0 0 0 0 0 0 0 0 0 127 0" result="hardAlpha"/>
<feOffset dx="4" dy="4"/>
<feGaussianBlur stdDeviation="16.5"/>
<feComposite in2="hardAlpha" operator="out"/>
<feColorMatrix type="matrix" values="0 0 0 0 0 0 0 0 0 0 0 0 0 0 0 0 0 0 0.25 0"/>
<feBlend mode="normal" in2="BackgroundImageFix" result="effect1_dropShadow_4406_27233"/>
<feBlend mode="normal" in="SourceGraphic" in2="effect1_dropShadow_4406_27233" result="shape"/>
</filter>
<filter id="filter5_d_4406_27233" x="87.727" y="44.2432" width="43.7269" height="45.451" filterUnits="userSpaceOnUse" color-interpolation-filters="sRGB">
<feFlood flood-opacity="0" result="BackgroundImageFix"/>
<feColorMatrix in="SourceAlpha" type="matrix" values="0 0 0 0 0 0 0 0 0 0 0 0 0 0 0 0 0 0 127 0" result="hardAlpha"/>
<feOffset dy="2"/>
<feGaussianBlur stdDeviation="6"/>
<feComposite in2="hardAlpha" operator="out"/>
<feColorMatrix type="matrix" values="0 0 0 0 0 0 0 0 0 0 0 0 0 0 0 0 0 0 0.25 0"/>
<feBlend mode="normal" in2="BackgroundImageFix" result="effect1_dropShadow_4406_27233"/>
<feBlend mode="normal" in="SourceGraphic" in2="effect1_dropShadow_4406_27233" result="shape"/>
</filter>
<linearGradient id="paint0_linear_4406_27233" x1="128.5" y1="28" x2="128.5" y2="251" gradientUnits="userSpaceOnUse">
<stop stop-color="#11998E"/>
<stop offset="1" stop-color="#38EF7D"/>
</linearGradient>
</defs>
</svg>
