<svg width="777" height="135" viewBox="0 0 777 135" fill="none" xmlns="http://www.w3.org/2000/svg">
<path d="M0.53 132V3.11999H84.66V25.853H24.874V53.419H73.92V76.152H24.874V109.267H84.66V132H0.53ZM95.372 132L129.919 83.133L96.088 35.34H124.728L144.06 63.98L163.034 35.34H191.674L157.843 83.133L192.569 132H163.929L144.06 102.286L124.012 132H95.372ZM246.08 134.685C236.056 134.685 227.464 132.448 220.304 127.972C213.144 123.497 207.655 117.411 203.836 109.714C200.018 102.017 198.108 93.336 198.108 83.67C198.108 73.8847 200.077 65.1435 204.015 57.4465C208.013 49.7495 213.622 43.6933 220.841 39.278C228.061 34.8627 236.593 32.655 246.438 32.655C257.835 32.655 267.381 35.5488 275.078 41.3365C282.835 47.0645 287.787 54.9107 289.935 64.875L265.591 71.319C264.159 66.307 261.653 62.3988 258.073 59.5945C254.553 56.7902 250.555 55.388 246.08 55.388C240.949 55.388 236.742 56.641 233.461 59.147C230.179 61.5933 227.763 64.9645 226.211 69.2605C224.66 73.4968 223.884 78.3 223.884 83.67C223.884 92.083 225.734 98.9148 229.433 104.165C233.192 109.356 238.741 111.952 246.08 111.952C251.57 111.952 255.746 110.699 258.61 108.193C261.474 105.687 263.622 102.107 265.054 97.453L289.935 102.644C287.191 112.907 282 120.812 274.362 126.361C266.725 131.911 257.298 134.685 246.08 134.685ZM350.144 134.685C340.239 134.685 331.498 132.567 323.92 128.33C316.402 124.034 310.495 118.157 306.199 110.699C301.963 103.181 299.845 94.589 299.845 84.923C299.845 74.362 301.933 65.1733 306.11 57.357C310.286 49.5407 316.044 43.4845 323.383 39.1885C330.722 34.8328 339.165 32.655 348.712 32.655C358.855 32.655 367.477 35.0417 374.577 39.815C381.677 44.5883 386.928 51.3008 390.329 59.9525C393.73 68.6042 394.923 78.7773 393.909 90.472H369.834V81.522C369.834 71.677 368.252 64.6065 365.09 60.3105C361.987 55.9548 356.886 53.777 349.786 53.777C341.492 53.777 335.376 56.3128 331.438 61.3845C327.56 66.3965 325.621 73.825 325.621 83.67C325.621 92.6797 327.56 99.6607 331.438 104.613C335.376 109.506 341.134 111.952 348.712 111.952C353.485 111.952 357.572 110.908 360.973 108.819C364.374 106.731 366.97 103.718 368.76 99.78L393.104 106.761C389.464 115.592 383.706 122.453 375.83 127.346C368.014 132.239 359.452 134.685 350.144 134.685ZM318.103 90.472V72.393H382.185V90.472H318.103ZM415.908 132V0.434997H440.252V132H415.908ZM466.905 132L467.084 3.11999H491.786V81.88L524.543 35.34H554.615L519.71 83.67L556.942 132H525.259L491.786 85.46V132H466.905ZM567.638 21.915V0.434997H591.982V21.915H567.638ZM567.638 132V35.34H591.982V132H567.638ZM676.81 132C670.128 133.253 663.564 133.79 657.12 133.611C650.736 133.492 645.008 132.388 639.936 130.299C634.924 128.151 631.106 124.721 628.48 120.007C626.094 115.592 624.841 111.117 624.721 106.582C624.602 101.988 624.542 96.7967 624.542 91.009V8.48999H648.886V89.577C648.886 93.336 648.916 96.737 648.976 99.78C649.095 102.763 649.722 105.15 650.855 106.94C653.003 110.341 656.434 112.191 661.148 112.489C665.861 112.787 671.082 112.549 676.81 111.773V132ZM608.074 54.135V35.34H676.81V54.135H608.074ZM736.119 134.685C723.947 134.685 714.102 131.94 706.584 126.451C699.126 120.902 694.591 113.086 692.98 103.002L717.861 99.243C718.876 103.778 721.113 107.328 724.574 109.893C728.094 112.459 732.539 113.742 737.909 113.742C742.325 113.742 745.726 112.907 748.112 111.236C750.499 109.506 751.692 107.119 751.692 104.076C751.692 102.167 751.215 100.645 750.26 99.5115C749.306 98.3182 747.158 97.1547 743.816 96.021C740.535 94.8873 735.403 93.3957 728.422 91.546C720.546 89.5173 714.251 87.25 709.538 84.744C704.824 82.238 701.423 79.2547 699.335 75.794C697.246 72.2737 696.202 68.0373 696.202 63.085C696.202 56.8797 697.783 51.5097 700.946 46.975C704.108 42.3807 708.553 38.8603 714.281 36.414C720.069 33.908 726.871 32.655 734.687 32.655C742.265 32.655 748.977 33.8185 754.825 36.1455C760.672 38.4725 765.386 41.784 768.966 46.08C772.605 50.376 774.843 55.4477 775.678 61.295L750.797 65.77C750.38 62.19 748.828 59.3558 746.143 57.2675C743.458 55.1792 739.819 53.956 735.224 53.598C730.749 53.2997 727.139 53.8963 724.395 55.388C721.71 56.8797 720.367 59.0277 720.367 61.832C720.367 63.5027 720.934 64.9048 722.068 66.0385C723.261 67.1722 725.678 68.3357 729.317 69.529C733.017 70.7223 738.625 72.2737 746.143 74.183C753.482 76.0923 759.359 78.3298 763.775 80.8955C768.25 83.4015 771.502 86.4445 773.53 90.0245C775.559 93.5448 776.573 97.811 776.573 102.823C776.573 112.728 772.993 120.514 765.833 126.182C758.673 131.851 748.769 134.685 736.119 134.685Z" fill="#12131A"/>
</svg>
